# xmcd
#
# Track frame offsets:
# 151
# 25300
# 47898
# 67997
# 87207
# 105227
# 125194
# 145451
# 160191
# 176606
# 196468
# 218577
# 238200
# 257256
# 274869
# 294987
# 316535
#
# Disc length: 4530 seconds
#
#
# Revision: 0
# Processed by: cddbd v1.4PL0 Copyright (c) Steve Scherf et al.
# Submitted via: FreeRIP 2.52 
#
DISCID=f011b011
DTITLE=王菲 - WANG FEI
DYEAR=2003
DGENRE=Acid Punk
TTITLE0=miss you night and day
TTITLE1=无奈那天
TTITLE2=静夜的单簧管
TTITLE3=可否拥抱我
TTITLE4=浪漫风暴
TTITLE5=EVERY THING
TTITLE6=巴黎塔尖
TTITLE7=讨我自己
TTITLE8=知己知梦
TTITLE9=但愿人长久
TTITLE10=多得他
TTITLE11=心惊胆战
TTITLE12=蜜月期
TTITLE13=只因喜欢FAYE
TTITLE14=誓言
TTITLE15=英雄
TTITLE16=萤火虫
EXTD=
EXTT0=
EXTT1=
EXTT2=
EXTT3=
EXTT4=
EXTT5=
EXTT6=
EXTT7=
EXTT8=
EXTT9=
EXTT10=
EXTT11=
EXTT12=
EXTT13=
EXTT14=
EXTT15=
EXTT16=
PLAYORDER=
